<svg xmlns="http://www.w3.org/2000/svg" viewBox="0 0 620 520">
  <g fill="none" fill-rule="evenodd">
    <path fill="#A7C77F" d="M74 416c75-47 162-64 263-50 71 10 139 37 204 81H74z"/>
    <path fill="#789C59" d="M23 453c85-49 181-69 289-60 106 8 201 40 285 94H23z"/>
    <g stroke="#45613D" stroke-linecap="round" stroke-width="8">
      <path d="M113 411c-7-45-2-82 16-111M117 364l-28-24M122 340l26-31M502 432c7-39 3-72-12-98M497 383l24-22"/>
    </g>
    <g transform="translate(124 82)">
      <ellipse cx="224" cy="331" rx="142" ry="40" fill="#617F4C" opacity=".18"/>
      <path d="M120 215c30-70 105-106 181-86 58 15 99 58 108 111 9 57-21 101-80 119-57 18-132 8-179-25-44-30-53-72-30-119z" fill="#FFFDF8" stroke="#5C5047" stroke-width="8"/>
      <path d="M107 235c-46-3-78 21-79 57-1 37 32 60 77 51 33-7 54-30 54-59 0-28-20-47-52-49z" fill="#FFFDF8" stroke="#5C5047" stroke-width="8"/>
      <path d="M323 163c21-57 54-86 81-73 28 14 13 68-42 115" fill="#FFFDF8" stroke="#5C5047" stroke-width="8"/>
      <path d="M283 142c1-61 24-99 54-92 31 8 30 66-3 128" fill="#FFFDF8" stroke="#5C5047" stroke-width="8"/>
      <path d="M335 164c20-38 42-57 56-49 13 9 0 40-35 73M295 143c4-43 19-68 34-63 15 6 11 42-9 85" fill="#E8B1A7"/>
      <ellipse cx="98" cy="205" rx="75" ry="68" fill="#FFFDF8" stroke="#5C5047" stroke-width="8"/>
      <path d="M54 218c-26 2-43 11-52 25M55 238c-27 8-44 22-50 41M142 218c25 3 43 12 54 27M140 238c27 8 44 22 52 41" stroke="#5C5047" stroke-linecap="round" stroke-width="5"/>
      <ellipse cx="71" cy="190" rx="9" ry="11" fill="#423A35"/>
      <ellipse cx="125" cy="190" rx="9" ry="11" fill="#423A35"/>
      <path d="M84 215c9 10 19 10 29 0-10-9-20-9-29 0z" fill="#DC8F85" stroke="#5C5047" stroke-width="5"/>
      <path d="M98 223v14m0 0c-8 9-18 10-27 4m27-4c8 9 18 10 28 4" stroke="#5C5047" stroke-linecap="round" stroke-width="5"/>
      <circle cx="48" cy="218" r="8" fill="#F0B7AD" opacity=".65"/>
      <circle cx="148" cy="218" r="8" fill="#F0B7AD" opacity=".65"/>
      <path d="M198 320c-40 22-74 28-104 18-28-9-38-32-26-54 26 25 63 27 111 7" fill="#FFFDF8" stroke="#5C5047" stroke-linecap="round" stroke-linejoin="round" stroke-width="8"/>
      <path d="M332 309c42 3 72 19 86 47-35 11-78 5-129-19" fill="#FFFDF8" stroke="#5C5047" stroke-linecap="round" stroke-linejoin="round" stroke-width="8"/>
      <path d="M209 254c25 27 57 37 96 29" stroke="#DDE9D1" stroke-linecap="round" stroke-width="11"/>
      <circle cx="410" cy="226" r="14" fill="#FFFDF8" stroke="#5C5047" stroke-width="7"/>
    </g>
    <g transform="rotate(15 -1045 2215)">
      <path fill="#EE8D42" d="M20 33c19 2 34 3 45 1-7 39-18 66-34 82-14-20-18-48-11-83z"/>
      <path d="M27 33C13 19 10 8 18 1c10 5 15 15 15 30M37 32c-1-17 4-28 15-32 6 9 3 20-7 33M47 32c9-13 19-19 30-16 0 11-8 19-23 23" stroke="#5D8544" stroke-linecap="round" stroke-width="8"/>
      <path d="M25 52l23 8M23 72l19 7M25 91l11 4" stroke="#C9682A" stroke-width="4"/>
    </g>
  </g>
</svg>
